<svg width="200" height="32" viewBox="0 0 200 32" fill="none" xmlns="http://www.w3.org/2000/svg">
<g clip-path="url(#clip0_20_28)">
<path d="M16.562 24.234C15.5393 23.818 14.664 23.4193 13.936 23.038C13.4333 23.2807 12.948 23.48 12.48 23.636C11.18 24.0173 10.0447 24.1473 9.074 24.026C8.10333 23.922 7.02867 23.5927 5.85 23.038C4.72333 22.466 3.77 21.738 2.99 20.854C2.21 19.9527 1.65533 18.9907 1.326 17.968C0.996667 16.928 0.832 15.8447 0.832 14.718C0.832 13.574 0.996667 12.482 1.326 11.442C1.67267 10.402 2.17533 9.414 2.834 8.478C3.49267 7.542 4.27267 6.74467 5.174 6.086C5.41667 5.91267 5.71133 5.73933 6.058 5.566C6.422 5.39267 6.77733 5.24533 7.124 5.124C7.47067 4.98533 7.65267 4.90733 7.67 4.89C8.36333 4.56067 8.996 4.63867 9.568 5.124L9.854 5.072C10.6167 4.968 11.206 4.92467 11.622 4.942C12.35 4.95933 13.0173 5.11533 13.624 5.41C14.248 5.70467 14.898 6.164 15.574 6.788C16.666 7.79333 17.498 9.06733 18.07 10.61C18.6593 12.1527 18.9107 13.7647 18.824 15.446C18.7373 17.1273 18.3127 18.6093 17.55 19.892C17.4113 20.1173 17.2467 20.3427 17.056 20.568L17.966 20.958C18.3993 21.1487 18.7113 21.4693 18.902 21.92C19.11 22.3707 19.11 22.8213 18.902 23.272C18.7113 23.7227 18.3907 24.0433 17.94 24.234C17.4893 24.442 17.03 24.442 16.562 24.234ZM9.568 19.944C9.204 19.632 9.00467 19.2247 8.97 18.722C8.93533 18.254 9.08267 17.8293 9.412 17.448C9.74133 17.0667 10.1487 16.8587 10.634 16.824C11.1193 16.7893 11.5527 16.9453 11.934 17.292C12.61 17.864 13.2427 18.358 13.832 18.774C14.1267 18.514 14.3433 18.2713 14.482 18.046C15.21 16.8327 15.4353 15.3333 15.158 13.548C14.8807 11.7627 14.2133 10.3933 13.156 9.44C12.4973 8.83333 11.9513 8.52133 11.518 8.504C11.2927 8.504 10.9027 8.53867 10.348 8.608C9.464 8.72933 8.762 8.816 8.242 8.868C8.034 8.868 7.826 8.842 7.618 8.79C7.49667 8.85933 7.37533 8.92867 7.254 8.998C6.50867 9.53533 5.89333 10.194 5.408 10.974C4.92267 11.7887 4.61933 12.6207 4.498 13.47C4.37667 14.302 4.394 15.134 4.55 15.966C4.706 16.7807 5.03533 17.526 5.538 18.202C6.04067 18.8953 6.67333 19.4327 7.436 19.814C8.528 20.334 9.44667 20.5593 10.192 20.49L9.568 19.944ZM30.9363 24.26C29.9483 23.8787 29.4543 23.246 29.4543 22.362C28.4663 23.7487 27.0623 24.2947 25.2423 24C24.4797 23.792 23.8123 23.48 23.2403 23.064C22.6857 22.648 22.2523 22.154 21.9403 21.582C21.6283 21.01 21.3943 20.4467 21.2383 19.892C21.0823 19.32 20.9783 18.7133 20.9263 18.072C20.8743 17.7253 20.8743 17.1533 20.9263 16.356C20.9783 15.5587 21.0217 14.9693 21.0563 14.588C21.091 14.2067 21.1517 13.6867 21.2383 13.028C21.325 12.352 21.377 11.936 21.3943 11.78C21.4637 11.2947 21.6803 10.9047 22.0443 10.61C22.4257 10.3153 22.8503 10.2027 23.3183 10.272C23.8037 10.324 24.1937 10.5407 24.4883 10.922C24.783 11.286 24.9043 11.7107 24.8523 12.196L24.6703 13.548C24.5837 14.1893 24.523 14.6747 24.4883 15.004C24.4537 15.316 24.4103 15.8013 24.3583 16.46C24.3237 17.1013 24.3323 17.5607 24.3843 17.838C24.4537 18.6873 24.6183 19.3373 24.8783 19.788C25.1557 20.2213 25.5803 20.5073 26.1523 20.646C26.5337 20.75 26.9583 20.724 27.4263 20.568C27.8943 20.3947 28.3623 19.9353 28.8303 19.19C28.9343 19.086 29.0383 18.9993 29.1423 18.93C29.1597 16.382 29.151 14.1027 29.1163 12.092C29.1163 11.572 29.2897 11.1387 29.6363 10.792C29.983 10.428 30.4077 10.246 30.9103 10.246C31.4303 10.2287 31.8637 10.3933 32.2103 10.74C32.5743 11.0867 32.765 11.52 32.7823 12.04C32.817 14.6053 32.817 18.0807 32.7823 22.466C32.7823 22.9513 32.6003 23.376 32.2363 23.74C31.8723 24.0867 31.439 24.26 30.9363 24.26ZM35.5266 22.232C35.4746 18.5573 35.5006 15.1167 35.6046 11.91C35.6219 11.4073 35.8126 10.9913 36.1766 10.662C36.5579 10.3153 36.9999 10.1507 37.5026 10.168C38.0052 10.1853 38.4212 10.3847 38.7506 10.766C39.0972 11.13 39.2619 11.5633 39.2446 12.066C39.1406 15.3073 39.1146 18.6787 39.1666 22.18C39.1666 22.6827 38.9932 23.116 38.6466 23.48C38.2999 23.8267 37.8752 24 37.3726 24C36.8699 24.0173 36.4366 23.8527 36.0726 23.506C35.7259 23.1593 35.5439 22.7347 35.5266 22.232ZM38.6206 5.722C38.9846 6.06867 39.1666 6.51067 39.1666 7.048C39.1666 7.568 38.9846 8.01 38.6206 8.374C38.2566 8.738 37.8146 8.92 37.2946 8.92C36.7746 8.92 36.3326 8.738 35.9686 8.374C35.6046 8.01 35.4226 7.568 35.4226 7.048C35.4226 6.51067 35.6046 6.06 35.9686 5.696C36.3326 5.332 36.7746 5.15 37.2946 5.15C37.8146 5.15 38.2566 5.34067 38.6206 5.722ZM46.4496 24C46.0163 24 45.6609 23.9913 45.3836 23.974L42.9396 23.948C42.4716 23.948 42.0989 23.844 41.8216 23.636C41.5963 23.4627 41.4143 23.2547 41.2756 23.012C41.1543 22.752 41.0936 22.4833 41.0936 22.206C41.0936 22.0153 41.1369 21.8247 41.2236 21.634C41.3103 21.426 41.4749 21.1487 41.7176 20.802C41.9603 20.4727 42.7056 19.58 43.9536 18.124C44.4736 17.5347 45.0283 16.902 45.6176 16.226C46.2069 15.5327 46.8309 14.7873 47.4896 13.99C47.0389 14.0073 46.5709 14.0073 46.0856 13.99C45.6003 13.9727 45.1063 13.9553 44.6036 13.938C43.8063 13.9033 43.2169 13.886 42.8356 13.886C42.2809 13.8687 41.8389 13.6953 41.5096 13.366C41.1803 13.0367 41.0156 12.638 41.0156 12.17C41.0156 11.7193 41.1543 11.3207 41.4316 10.974C41.7089 10.6273 42.1076 10.454 42.6276 10.454C44.8983 10.454 47.5503 10.4973 50.5836 10.584C51.0863 10.6013 51.5023 10.7833 51.8316 11.13C52.1783 11.4767 52.3516 11.8753 52.3516 12.326C52.3516 12.6553 52.2563 12.9933 52.0656 13.34C51.8749 13.6867 51.5803 14.1027 51.1816 14.588L48.1396 18.28C47.4983 19.06 46.8223 19.8227 46.1116 20.568C47.7583 20.568 49.4396 20.5247 51.1556 20.438C51.7103 20.4033 52.1523 20.5593 52.4816 20.906C52.8109 21.2527 52.9756 21.6687 52.9756 22.154C52.9756 22.6047 52.8369 22.9947 52.5596 23.324C52.2823 23.6533 51.8836 23.8353 51.3636 23.87C49.6649 23.9567 48.0269 24 46.4496 24Z" fill="#3366FF"/>
<path d="M73.7817 22.258C73.7644 22.7607 73.5737 23.1853 73.2097 23.532C72.8457 23.8787 72.4124 24.0433 71.9097 24.026C71.407 24.0087 70.9824 23.818 70.6357 23.454C70.289 23.09 70.1244 22.6567 70.1417 22.154C70.1764 21.0273 70.159 17.6993 70.0897 12.17C68.807 13.782 67.5417 15.5067 66.2937 17.344C65.999 17.76 65.609 18.02 65.1237 18.124C64.6384 18.2107 64.1877 18.1153 63.7717 17.838C63.7197 17.8033 63.6764 17.7687 63.6417 17.734C63.451 17.6127 63.2864 17.4653 63.1477 17.292L59.1437 12.248C59.161 12.2827 59.161 13.9467 59.1437 17.24C59.1437 20.516 59.1437 22.1627 59.1437 22.18C59.1437 22.6827 58.9617 23.116 58.5977 23.48C58.251 23.8267 57.8264 24 57.3237 24C56.821 24 56.3877 23.8267 56.0237 23.48C55.677 23.116 55.5037 22.6827 55.5037 22.18C55.5037 21.452 55.5037 20.23 55.5037 18.514C55.521 16.798 55.5297 15.472 55.5297 14.536C55.5297 13.6 55.5124 12.4387 55.4777 11.052C55.443 9.82133 55.3824 8.54733 55.2957 7.23C55.261 6.72733 55.4084 6.28533 55.7377 5.904C56.067 5.52267 56.483 5.31467 56.9857 5.28C57.2457 5.26267 57.4884 5.29733 57.7137 5.384C58.199 5.45333 58.589 5.68733 58.8837 6.086L64.6557 13.34C66.5277 10.74 68.4344 8.4 70.3757 6.32C70.7397 5.696 71.277 5.39267 71.9877 5.41C72.4904 5.42733 72.915 5.618 73.2617 5.982C73.6084 6.346 73.773 6.77933 73.7557 7.282C73.7037 8.92867 73.7037 11.4507 73.7557 14.848C73.8077 18.228 73.8164 20.698 73.7817 22.258ZM82.2396 24.026C81.6156 24.026 80.9396 23.9047 80.2116 23.662C79.3103 23.3153 78.5563 22.804 77.9496 22.128C77.3603 21.4347 76.9963 20.6807 76.8576 19.866C76.7536 19.3287 76.7016 18.8087 76.7016 18.306C76.7016 17.1447 76.927 16.0527 77.3776 15.03C78.0016 13.5913 78.877 12.43 80.0036 11.546C81.1303 10.662 82.413 10.22 83.8516 10.22C84.3716 10.22 84.935 10.2893 85.5416 10.428C85.9403 10.532 86.3303 10.714 86.7116 10.974H86.8416L87.1016 10.948C87.535 10.948 87.9163 11.104 88.2456 11.416C88.5923 11.728 88.7916 12.1093 88.8436 12.56L89.0256 14.354C89.0603 15.1167 89.1036 16.4167 89.1556 18.254L89.2076 19.658C89.2423 20.5247 89.2596 21.0967 89.2596 21.374C89.277 21.634 89.2683 21.8853 89.2336 22.128C89.1643 22.6307 88.9736 23.064 88.6616 23.428C88.367 23.7747 87.977 23.9567 87.4916 23.974C87.093 23.9913 86.729 23.896 86.3996 23.688C86.0876 23.4627 85.8623 23.064 85.7236 22.492C85.325 22.9773 84.8396 23.3327 84.2676 23.558C83.5916 23.8353 82.9156 23.9913 82.2396 24.026ZM82.2656 20.36C82.7856 20.36 83.323 20.1953 83.8776 19.866C84.0163 19.7793 84.1723 19.6493 84.3456 19.476L84.7356 19.112L85.1776 18.488C85.2816 18.3667 85.403 18.28 85.5416 18.228C85.5416 16.772 85.4983 15.5413 85.4116 14.536L85.1516 14.354L84.7876 14.068L84.5536 13.912C84.2763 13.8427 84.0596 13.808 83.9036 13.808C83.2796 13.808 82.673 14.0507 82.0836 14.536C81.5116 15.0213 81.0523 15.6973 80.7056 16.564C80.4283 17.24 80.2896 17.8467 80.2896 18.384C80.2896 18.852 80.3936 19.242 80.6016 19.554C80.827 19.866 81.139 20.0913 81.5376 20.23C81.7976 20.3167 82.0403 20.36 82.2656 20.36ZM103.747 22.362C103.73 22.83 103.548 23.2287 103.201 23.558C102.855 23.8873 102.447 24.0433 101.979 24.026C101.511 24.0087 101.113 23.8267 100.783 23.48C100.454 23.1333 100.298 22.726 100.315 22.258C100.315 22.0673 100.333 21.4953 100.367 20.542C100.419 19.5887 100.445 18.852 100.445 18.332C100.463 17.812 100.445 17.214 100.393 16.538C100.341 15.8447 100.246 15.29 100.107 14.874C100.003 14.5447 99.7953 14.276 99.4833 14.068C99.1713 13.8427 98.7813 13.7127 98.3133 13.678C97.828 13.626 97.3773 13.6867 96.9613 13.86C96.5626 14.016 96.268 14.2413 96.0773 14.536C96.008 14.7613 95.9646 14.9173 95.9473 15.004C95.9473 15.0733 95.9473 15.186 95.9473 15.342C95.9473 15.9487 95.956 17.0407 95.9733 18.618C95.9906 20.178 95.9993 21.3653 95.9993 22.18C95.9993 22.6827 95.8173 23.116 95.4533 23.48C95.1066 23.8267 94.682 24 94.1793 24C93.6766 24 93.2433 23.8267 92.8793 23.48C92.5326 23.116 92.3593 22.6827 92.3593 22.18C92.3593 21.452 92.342 19.9613 92.3073 17.708C92.29 15.4547 92.2206 13.73 92.0993 12.534C92.0126 11.91 92.134 11.416 92.4633 11.052C92.7926 10.6707 93.2173 10.48 93.7373 10.48C94.6733 10.532 95.2193 10.9827 95.3753 11.832C96.1726 10.8267 97.2733 10.298 98.6773 10.246C99.908 10.2633 100.913 10.6013 101.693 11.26C102.473 11.9013 103.037 12.7593 103.383 13.834C103.574 14.4233 103.704 15.1687 103.773 16.07C103.86 16.9713 103.895 17.734 103.877 18.358C103.877 18.9647 103.851 19.7793 103.799 20.802C103.765 21.8247 103.747 22.3447 103.747 22.362ZM111.667 24.026C111.043 24.026 110.367 23.9047 109.639 23.662C108.738 23.3153 107.984 22.804 107.377 22.128C106.788 21.4347 106.424 20.6807 106.285 19.866C106.181 19.3287 106.129 18.8087 106.129 18.306C106.129 17.1447 106.355 16.0527 106.805 15.03C107.429 13.5913 108.305 12.43 109.431 11.546C110.558 10.662 111.841 10.22 113.279 10.22C113.799 10.22 114.363 10.2893 114.969 10.428C115.368 10.532 115.758 10.714 116.139 10.974H116.269L116.529 10.948C116.963 10.948 117.344 11.104 117.673 11.416C118.02 11.728 118.219 12.1093 118.271 12.56L118.453 14.354C118.488 15.1167 118.531 16.4167 118.583 18.254L118.635 19.658C118.67 20.5247 118.687 21.0967 118.687 21.374C118.705 21.634 118.696 21.8853 118.661 22.128C118.592 22.6307 118.401 23.064 118.089 23.428C117.795 23.7747 117.405 23.9567 116.919 23.974C116.521 23.9913 116.157 23.896 115.827 23.688C115.515 23.4627 115.29 23.064 115.151 22.492C114.753 22.9773 114.267 23.3327 113.695 23.558C113.019 23.8353 112.343 23.9913 111.667 24.026ZM111.693 20.36C112.213 20.36 112.751 20.1953 113.305 19.866C113.444 19.7793 113.6 19.6493 113.773 19.476L114.163 19.112L114.605 18.488C114.709 18.3667 114.831 18.28 114.969 18.228C114.969 16.772 114.926 15.5413 114.839 14.536L114.579 14.354L114.215 14.068L113.981 13.912C113.704 13.8427 113.487 13.808 113.331 13.808C112.707 13.808 112.101 14.0507 111.511 14.536C110.939 15.0213 110.48 15.6973 110.133 16.564C109.856 17.24 109.717 17.8467 109.717 18.384C109.717 18.852 109.821 19.242 110.029 19.554C110.255 19.866 110.567 20.0913 110.965 20.23C111.225 20.3167 111.468 20.36 111.693 20.36ZM127.117 29.356C126.285 29.356 125.54 29.2087 124.881 28.914C124.24 28.6367 123.59 28.2033 122.931 27.614C122.55 27.2847 122.272 26.9727 122.099 26.678C121.943 26.3833 121.865 26.08 121.865 25.768C121.865 25.2653 122.03 24.8493 122.359 24.52C122.688 24.1907 123.096 24.026 123.581 24.026C124.153 24.026 124.604 24.2513 124.933 24.702C125.314 25.2047 125.696 25.56 126.077 25.768C126.458 25.9933 126.866 26.106 127.299 26.106C128.131 26.106 128.79 25.7593 129.275 25.066C129.76 24.3727 130.081 23.4973 130.237 22.44C129.89 22.9947 129.388 23.402 128.729 23.662C128.088 23.922 127.394 24.052 126.649 24.052C125.644 24.052 124.716 23.7833 123.867 23.246C123.018 22.6913 122.333 21.92 121.813 20.932C121.31 19.9267 121.059 18.7827 121.059 17.5C121.059 16.0787 121.319 14.822 121.839 13.73C122.359 12.6207 123.096 11.7627 124.049 11.156C125.002 10.532 126.094 10.22 127.325 10.22C128.226 10.22 129.188 10.4973 130.211 11.052C130.315 10.8093 130.506 10.6187 130.783 10.48C131.078 10.324 131.433 10.246 131.849 10.246C132.317 10.246 132.69 10.4107 132.967 10.74C133.262 11.052 133.418 11.494 133.435 12.066C133.487 15.3247 133.487 18.7133 133.435 22.232C133.4 23.272 133.166 24.26 132.733 25.196C132.317 26.1493 131.736 27.016 130.991 27.796C130.471 28.316 129.899 28.706 129.275 28.966C128.651 29.226 127.932 29.356 127.117 29.356ZM127.065 20.672C127.776 20.672 128.452 20.3513 129.093 19.71C129.284 19.5193 129.448 19.294 129.587 19.034C129.743 18.774 129.864 18.54 129.951 18.332C129.951 16.148 129.942 14.8567 129.925 14.458C129.526 14.146 129.136 13.9293 128.755 13.808C128.374 13.6693 127.897 13.6 127.325 13.6C126.354 13.6 125.635 13.9467 125.167 14.64C124.716 15.3333 124.491 16.2867 124.491 17.5C124.491 18.4533 124.725 19.2247 125.193 19.814C125.661 20.386 126.285 20.672 127.065 20.672ZM142.753 24.234C141.366 24.234 140.153 23.9393 139.113 23.35C138.073 22.7607 137.276 21.972 136.721 20.984C136.184 19.996 135.915 18.904 135.915 17.708C135.915 16.2 136.192 14.9 136.747 13.808C137.302 12.6987 138.099 11.8233 139.139 11.182C140.179 10.5407 141.358 10.22 142.675 10.22C144.027 10.22 145.18 10.4973 146.133 11.052C147.104 11.6067 147.832 12.3607 148.317 13.314C148.802 14.25 149.045 15.2987 149.045 16.46C149.045 17.0493 148.854 17.5087 148.473 17.838C148.092 18.1673 147.58 18.358 146.939 18.41C145.639 18.5313 144.486 18.592 143.481 18.592C142.528 18.592 141.505 18.566 140.413 18.514L139.503 18.488C139.607 19.3373 139.936 20.0047 140.491 20.49C141.063 20.958 141.921 21.1747 143.065 21.14C143.585 21.1227 144.001 21.062 144.313 20.958C144.625 20.8367 144.902 20.6633 145.145 20.438C145.284 20.2993 145.431 20.152 145.587 19.996C145.743 19.84 145.916 19.7187 146.107 19.632C146.298 19.5453 146.532 19.502 146.809 19.502C147.26 19.502 147.632 19.658 147.927 19.97C148.239 20.2647 148.395 20.6113 148.395 21.01C148.395 21.5647 148.118 22.0933 147.563 22.596C147.008 23.0987 146.289 23.4973 145.405 23.792C144.538 24.0867 143.654 24.234 142.753 24.234ZM139.555 15.836C140.578 15.9747 141.713 16.0267 142.961 15.992C144.157 15.9747 145.032 15.8967 145.587 15.758C145.552 15.0127 145.327 14.4147 144.911 13.964C144.512 13.5133 143.784 13.2967 142.727 13.314C141.843 13.3313 141.124 13.5307 140.569 13.912C140.014 14.2933 139.676 14.9347 139.555 15.836ZM151.858 23.454C151.494 23.1073 151.312 22.6913 151.312 22.206C151.295 20.49 151.286 19.138 151.286 18.15C151.251 17.942 151.251 17.7427 151.286 17.552C151.269 15.628 151.26 13.886 151.26 12.326C151.26 11.65 151.433 11.1387 151.78 10.792C152.144 10.428 152.577 10.246 153.08 10.246C153.444 10.246 153.773 10.35 154.068 10.558C154.38 10.7487 154.605 11.0953 154.744 11.598C155.437 11.2167 156.477 10.7833 157.864 10.298C158.315 10.142 158.748 10.168 159.164 10.376C159.597 10.5667 159.892 10.8873 160.048 11.338C160.204 11.7887 160.178 12.2307 159.97 12.664C159.779 13.08 159.459 13.366 159.008 13.522C157.413 14.0767 156.053 14.6227 154.926 15.16C154.857 15.7147 154.848 16.5033 154.9 17.526C154.917 18.618 154.935 20.1607 154.952 22.154C154.952 22.6567 154.77 23.09 154.406 23.454C154.059 23.818 153.635 24 153.132 24C152.647 24 152.222 23.818 151.858 23.454Z" fill="#A6C1FF"/>
</g>
<defs>
<clipPath id="clip0_20_28">
<rect width="200" height="32" fill="white"/>
</clipPath>
</defs>
</svg>
